<?xml version="1.0" encoding="utf-8"?>
<!-- Generator: Adobe Illustrator 19.2.1, SVG Export Plug-In . SVG Version: 6.00 Build 0)  -->
<svg version="1.1" id="Layer_1" xmlns="http://www.w3.org/2000/svg" xmlns:xlink="http://www.w3.org/1999/xlink" x="0px" y="0px"
	 viewBox="0 0 96.2 96.2" style="enable-background:new 0 0 96.2 96.2;" xml:space="preserve">
<style type="text/css">
	.st0{fill:#DEDEE1;}
	.st1{fill:#FFFFFF;stroke:#DEDEE1;stroke-width:4;stroke-linejoin:round;stroke-miterlimit:10;}
	.st2{fill:none;stroke:#DEDEE1;stroke-width:4;stroke-miterlimit:10;}
	.st3{fill:#A09F9F;}
	.st4{fill:none;stroke:#DEDEE1;stroke-width:4;stroke-linejoin:round;stroke-miterlimit:10;}
	.st5{fill:none;stroke:#DEDEE1;stroke-width:4;stroke-linecap:round;stroke-linejoin:round;stroke-miterlimit:10;}
	.st6{fill:#53B6E7;}
	.st7{clip-path:url(#SVGID_2_);fill:none;stroke:#D0D0D3;stroke-miterlimit:10;}
	.st8{clip-path:url(#SVGID_4_);}
	.st9{clip-path:url(#SVGID_6_);fill:#D0D0D3;}
	.st10{clip-path:url(#SVGID_8_);}
	.st11{clip-path:url(#SVGID_10_);fill:#D0D0D3;}
	.st12{fill:none;stroke:#FFFFFF;stroke-width:4;stroke-linecap:round;stroke-miterlimit:10;}
	.st13{clip-path:url(#SVGID_12_);fill:#55B7E7;}
	.st14{clip-path:url(#SVGID_14_);enable-background:new    ;}
	.st15{clip-path:url(#SVGID_16_);}
	.st16{clip-path:url(#SVGID_18_);fill:#FFFFFF;}
	.st17{clip-path:url(#SVGID_20_);}
	.st18{clip-path:url(#SVGID_22_);enable-background:new    ;}
	.st19{clip-path:url(#SVGID_24_);}
	.st20{clip-path:url(#SVGID_26_);}
	.st21{clip-path:url(#SVGID_28_);fill:#FFFFFF;}
</style>
<g>
	<defs>
		<rect id="SVGID_1_" x="-329.6" y="-323.1" width="1627" height="2010"/>
	</defs>
	<clipPath id="SVGID_2_">
		<use xlink:href="#SVGID_1_"  style="overflow:visible;"/>
	</clipPath>
</g>
<g>
	<defs>
		<path id="SVGID_3_" d="M233.6,101.4c-0.3,0.3-0.3,0.7-0.1,0.9c0.2,0.2,0.6,0.1,0.8-0.2l6.7-7.4c0.3-0.3,0.3-0.7,0.1-0.9
			c-0.2-0.2-0.6-0.1-0.8,0.2L233.6,101.4z"/>
	</defs>
	<clipPath id="SVGID_4_">
		<use xlink:href="#SVGID_3_"  style="overflow:visible;"/>
	</clipPath>
	<g class="st8">
		<defs>
			<rect id="SVGID_5_" x="-329.6" y="-323.1" width="1627" height="2010"/>
		</defs>
		<clipPath id="SVGID_6_">
			<use xlink:href="#SVGID_5_"  style="overflow:visible;"/>
		</clipPath>
	</g>
</g>
<g>
	<defs>
		<path id="SVGID_7_" d="M234.7,94c-0.3-0.3-0.6-0.4-0.8-0.2c-0.2,0.2-0.2,0.6,0.1,0.9l6.7,7.4c0.3,0.3,0.6,0.4,0.8,0.2
			c0.2-0.2,0.2-0.6-0.1-0.9L234.7,94z"/>
	</defs>
	<clipPath id="SVGID_8_">
		<use xlink:href="#SVGID_7_"  style="overflow:visible;"/>
	</clipPath>
	<g class="st10">
		<defs>
			<rect id="SVGID_9_" x="-329.6" y="-323.1" width="1627" height="2010"/>
		</defs>
		<clipPath id="SVGID_10_">
			<use xlink:href="#SVGID_9_"  style="overflow:visible;"/>
		</clipPath>
	</g>
</g>
<g>
	<g>
		<defs>
			<circle id="SVGID_11_" cx="48.1" cy="47.9" r="44.4"/>
		</defs>
		<clipPath id="SVGID_12_">
			<use xlink:href="#SVGID_11_"  style="overflow:visible;"/>
		</clipPath>
		<rect x="-9.2" y="-9.4" class="st13" width="114.6" height="114.6"/>
	</g>
	<g>
		<defs>
			<path id="SVGID_13_" d="M37.4,60.8c0.3,0.3,0.6,0.4,0.9,0.4c0.3,0,0.7-0.1,0.9-0.4l10.7-10.7l10.7,10.7c0.3,0.3,0.6,0.4,0.9,0.4
				c0.3,0,0.7-0.1,0.9-0.4c0.5-0.5,0.5-1.3,0-1.8L51.7,48.3l10.7-10.7c0.5-0.5,0.5-1.3,0-1.8c-0.5-0.5-1.3-0.5-1.8,0L49.9,46.4
				L39.2,35.8c-0.5-0.5-1.3-0.5-1.8,0c-0.5,0.5-0.5,1.3,0,1.8L48,48.3L37.4,58.9C36.9,59.4,36.9,60.3,37.4,60.8"/>
		</defs>
		<clipPath id="SVGID_14_">
			<use xlink:href="#SVGID_13_"  style="overflow:visible;"/>
		</clipPath>
		<g class="st14">
			<g>
				<defs>
					<rect id="SVGID_15_" x="34.6" y="34.4" width="28.3" height="28.3"/>
				</defs>
				<clipPath id="SVGID_16_">
					<use xlink:href="#SVGID_15_"  style="overflow:visible;"/>
				</clipPath>
				<g class="st15">
					<defs>
						<rect id="SVGID_17_" x="34.6" y="34.4" width="28.3" height="28.3"/>
					</defs>
					<clipPath id="SVGID_18_">
						<use xlink:href="#SVGID_17_"  style="overflow:visible;"/>
					</clipPath>
					<rect x="24.1" y="22.5" class="st16" width="51.5" height="51.5"/>
				</g>
				<g class="st15">
					<defs>
						<rect id="SVGID_19_" x="-2125.9" y="-237.6" width="4325.8" height="2703.6"/>
					</defs>
					<clipPath id="SVGID_20_">
						<use xlink:href="#SVGID_19_"  style="overflow:visible;"/>
					</clipPath>
					<g class="st17">
						<defs>
							<rect id="SVGID_21_" x="34.6" y="34.4" width="28.3" height="28.3"/>
						</defs>
						<clipPath id="SVGID_22_">
							<use xlink:href="#SVGID_21_"  style="overflow:visible;"/>
						</clipPath>
						<g class="st18">
							<g>
								<defs>
									<rect id="SVGID_23_" x="34.6" y="34.4" width="28.3" height="28.3"/>
								</defs>
								<clipPath id="SVGID_24_">
									<use xlink:href="#SVGID_23_"  style="overflow:visible;"/>
								</clipPath>
								<g class="st19">
									<defs>
										<rect id="SVGID_25_" x="24.1" y="22.5" width="51.5" height="51.5"/>
									</defs>
									<clipPath id="SVGID_26_">
										<use xlink:href="#SVGID_25_"  style="overflow:visible;"/>
									</clipPath>
									<g class="st20">
										<defs>
											<rect id="SVGID_27_" x="34.6" y="34.4" width="28.3" height="28.3"/>
										</defs>
										<clipPath id="SVGID_28_">
											<use xlink:href="#SVGID_27_"  style="overflow:visible;"/>
										</clipPath>
										<rect x="11.2" y="9.6" class="st21" width="77.2" height="77.2"/>
									</g>
								</g>
							</g>
						</g>
					</g>
				</g>
			</g>
		</g>
	</g>
</g>
</svg>
